<svg xmlns="http://www.w3.org/2000/svg" viewBox="0 0 48 32" width="48" height="32">
  <rect width="48" height="32" rx="4" fill="#F9F9F9"/>
  <path d="M18.7 21.1H15.5L17.4 10.9H20.6L18.7 21.1Z" fill="#00579F"/>
  <path d="M29.5 11.2C28.9 11 27.9 10.7 26.7 10.7C23.7 10.7 21.6 12.2 21.6 14.4C21.6 16.1 23.1 16.9 24.2 17.5C25.3 18 25.7 18.4 25.7 18.9C25.7 19.6 24.8 20 24 20C22.9 20 22.3 19.8 21.3 19.4L20.9 19.2L20.5 21.8C21.2 22.1 22.5 22.4 23.8 22.4C27 22.4 29.1 20.9 29.1 18.5C29.1 17.2 28.2 16.2 26.5 15.4C25.5 14.9 24.8 14.5 24.8 13.9C24.8 13.4 25.4 12.9 26.5 12.9C27.4 12.9 28.1 13.1 28.6 13.3L28.9 13.4L29.5 11.2Z" fill="#00579F"/>
  <path d="M33.9 17.5C34.2 16.7 35.3 13.8 35.3 13.8C35.3 13.8 35.5 13.3 35.7 12.9L35.9 13.7C35.9 13.7 36.6 16.8 36.7 17.5H33.9ZM38.3 10.9H35.9C35.1 10.9 34.5 11.1 34.1 11.9L29.7 21.1H32.9C32.9 21.1 33.5 19.5 33.6 19.2C33.9 19.2 37.3 19.2 37.7 19.2C37.8 19.6 38.1 21.1 38.1 21.1H41L38.3 10.9Z" fill="#00579F"/>
  <path d="M13.2 10.9L10.2 17.9L9.9 16.5C9.4 15 7.9 13.3 6.2 12.4L9 21.1H12.2L17.4 10.9H13.2Z" fill="#00579F"/>
  <path d="M8.2 10.9H3.1L3 11.1C7 12.1 9.6 14.1 10.7 16.5L9.7 11.9C9.5 11.1 8.9 10.9 8.2 10.9Z" fill="#FAA61A"/>
</svg>