<svg xmlns="http://www.w3.org/2000/svg" viewBox="0 0 48 32" width="48" height="32">
  <rect width="48" height="32" rx="4" fill="#F9F9F9"/>
  <path d="M20.5 11.5C19.7 12.4 18.6 12.3 18.6 12.3C18.5 11.4 19 10.7 19.7 10.3C20.5 9.8 21.5 9.9 21.5 9.9C21.5 10.9 20.9 11.3 20.5 11.5Z" fill="black"/>
  <path d="M21.4 12.1C20.1 12 19 13 18.4 13C17.8 13 16.8 12.1 15.8 12.1C14.5 12.1 13.2 12.9 12.5 14.2C11.1 16.7 12.1 20.4 13.5 22.5C14.2 23.5 15 24.6 16.1 24.6C17.1 24.6 17.5 23.9 18.7 23.9C19.9 23.9 20.3 24.6 21.3 24.6C22.4 24.6 23.1 23.6 23.8 22.6C24.6 21.5 24.9 20.4 24.9 20.3C24.9 20.3 22.9 19.5 22.9 17.1C22.9 15.1 24.5 14.2 24.6 14.1C23.6 12.7 22 12.1 21.4 12.1Z" fill="black"/>
  <path d="M31.5 14.5V13.5H30.5V12.5H29.5V13.5H28.5V14.5H29.5V15.5H30.5V14.5H31.5Z" fill="black"/>
  <path d="M35.5 14.5V13.5H34.5V12.5H33.5V13.5H32.5V14.5H33.5V15.5H34.5V14.5H35.5Z" fill="black"/>
  <path d="M31.5 20.5C31.5 19.4 32.4 18.5 33.5 18.5C34.6 18.5 35.5 19.4 35.5 20.5C35.5 21.6 34.6 22.5 33.5 22.5C32.4 22.5 31.5 21.6 31.5 20.5Z" fill="black"/>
  <path d="M28.5 20.5C28.5 18.3 30.3 16.5 32.5 16.5H34.5C36.7 16.5 38.5 18.3 38.5 20.5C38.5 22.7 36.7 24.5 34.5 24.5H32.5C30.3 24.5 28.5 22.7 28.5 20.5Z" fill="black"/>
</svg>