<svg xmlns="http://www.w3.org/2000/svg" viewBox="0 0 24 24" fill="none" stroke="currentColor" stroke-width="2" stroke-linecap="round" stroke-linejoin="round">
  <path d="M18 10c-1.5 0-3 .5-3 2s1.5 2 3 2 3-.5 3-2-1.5-2-3-2z"/>
  <path d="M18 14c-1.5 0-3-.5-3-2"/>
  <path d="M18 6c-4.5 0-9 2.5-9 6s4.5 6 9 6c1 0 1.5-.5 1.5-1 0-.3-.1-.6-.4-.8-.2-.3-.4-.5-.4-.8 0-.5.4-1 1-1H21c1.1 0 2-.9 2-2v-.5c0-3.5-3.6-6-5-6z"/>
  <path d="M9 12v-2c0-1.1-.9-2-2-2H4c-1.1 0-2 .9-2 2v2c0 1.1.9 2 2 2h3c1.1 0 2-.9 2-2z"/>
</svg>