<svg xmlns="http://www.w3.org/2000/svg" viewBox="0 0 48 32" width="48" height="32">
  <rect width="48" height="32" rx="4" fill="#F9F9F9"/>
  <rect x="4" y="6" width="40" height="20" rx="2" fill="#006FCF"/>
  <path d="M24.5 21.5H23.2V17.1L20 21.5H18.5V15.5H19.8V19.9L23 15.5H24.5V21.5Z" fill="white"/>
  <path d="M25.5 21.5V15.5H29.7V16.8H26.8V17.9H29.6V19.1H26.8V20.3H29.7V21.5H25.5Z" fill="white"/>
  <path d="M14.5 21.5V15.5H15.8V20.3H18.2V21.5H14.5Z" fill="white"/>
  <path d="M30.5 21.5V15.5H33.2C34.3 15.5 35 16.2 35 17.1C35 17.8 34.5 18.4 33.9 18.5C34.6 18.6 35.2 19.2 35.2 20C35.2 21 34.4 21.5 33.3 21.5H30.5ZM31.8 18H33C33.5 18 33.8 17.7 33.8 17.3C33.8 16.9 33.5 16.6 33 16.6H31.8V18ZM31.8 20.4H33.1C33.6 20.4 33.9 20.1 33.9 19.7C33.9 19.3 33.6 19 33.1 19H31.8V20.4Z" fill="white"/>
  <path d="M12.5 21.5L10.5 18.5L8.5 21.5H7L9.5 17.5L7 13.5H8.5L10.5 16.5L12.5 13.5H14L11.5 17.5L14 21.5H12.5Z" fill="white"/>
</svg>