<svg xmlns="http://www.w3.org/2000/svg" viewBox="0 0 48 32" width="48" height="32">
  <rect width="48" height="32" rx="4" fill="#F9F9F9"/>
  <path d="M24.5 16.5C24.5 16.1 24.5 15.7 24.4 15.3H18.5V17.4H21.9C21.7 18.3 21.1 19 20.2 19.5V21.2H22.4C23.9 19.8 24.5 18.3 24.5 16.5Z" fill="#4285F4"/>
  <path d="M18.5 22.5C20.3 22.5 21.8 21.9 22.9 20.9L20.7 19.2C20.1 19.6 19.4 19.8 18.5 19.8C16.9 19.8 15.5 18.7 15 17.2H12.7V18.9C13.8 21.1 16 22.5 18.5 22.5Z" fill="#34A853"/>
  <path d="M15 17.2C14.8 16.8 14.7 16.4 14.7 16C14.7 15.6 14.8 15.2 15 14.8V13.1H12.7C12.3 13.9 12 14.9 12 16C12 17.1 12.3 18.1 12.7 18.9L15 17.2Z" fill="#FBBC05"/>
  <path d="M18.5 12.2C19.5 12.2 20.3 12.5 21 13.2L23 11.2C21.8 10.1 20.3 9.5 18.5 9.5C16 9.5 13.8 10.9 12.7 13.1L15 14.8C15.5 13.3 16.9 12.2 18.5 12.2Z" fill="#EA4335"/>
  <path d="M36.5 18.5H35.5V19.5H36.5V18.5Z" fill="#3C4043"/>
  <path d="M36.5 15.5H35.5V17.5H36.5V15.5Z" fill="#3C4043"/>
  <path d="M33.5 18.5H32.5V19.5H33.5V18.5Z" fill="#3C4043"/>
  <path d="M33.5 15.5H32.5V17.5H33.5V15.5Z" fill="#3C4043"/>
  <path d="M30.5 18.5H29.5V19.5H30.5V18.5Z" fill="#3C4043"/>
  <path d="M30.5 15.5H29.5V17.5H30.5V15.5Z" fill="#3C4043"/>
  <path d="M30.5 12.5H29.5V14.5H30.5V12.5Z" fill="#3C4043"/>
  <path d="M33.5 12.5H32.5V14.5H33.5V12.5Z" fill="#3C4043"/>
  <path d="M36.5 12.5H35.5V14.5H36.5V12.5Z" fill="#3C4043"/>
</svg>