<svg xmlns="http://www.w3.org/2000/svg" width="80" height="50" viewBox="0 0 80 50">
  <rect width="80" height="50" rx="4" fill="#ffffff"/>
  <g transform="translate(10, 15)">
    <path d="M27.7 13.6c0-.7-.1-1.5-.2-2.2H17v4.2h6c-.3 1.4-1.1 2.6-2.3 3.4v2.8h3.7c2.2-2 3.3-5 3.3-8.2z" fill="#4285F4"/>
    <path d="M17 25c3.1 0 5.7-1 7.6-2.7l-3.7-2.8c-1 .7-2.3 1.1-3.9 1.1-3 0-5.5-2-6.4-4.7H6.7v2.9C8.6 22.5 12.5 25 17 25z" fill="#34A853"/>
    <path d="M10.6 15.8c-.2-.7-.4-1.5-.4-2.3s.1-1.6.4-2.3v-2.9H6.7C5.9 10 5.5 11.8 5.5 13.5s.4 3.5 1.2 5.1l3.9-2.8z" fill="#FBBC04"/>
    <path d="M17 8.8c1.7 0 3.2.6 4.4 1.7l3.3-3.3C22.6 5.3 20 4.3 17 4.3c-4.5 0-8.4 2.5-10.3 6.2l3.9 2.9c.9-2.7 3.4-4.6 6.4-4.6z" fill="#EA4335"/>
    <path d="M38.6 12.5c-2.4 0-4.3 1.8-4.3 4.3 0 2.4 1.9 4.3 4.3 4.3 2.4 0 4.3-1.8 4.3-4.3 0-2.5-1.9-4.3-4.3-4.3zm0 6.9c-1.3 0-2.4-1.1-2.4-2.6 0-1.5 1.1-2.6 2.4-2.6 1.3 0 2.4 1 2.4 2.6 0 1.5-1.1 2.6-2.4 2.6z" fill="#5F6368"/>
    <path d="M47.8 12.5c-2.4 0-4.3 1.8-4.3 4.3 0 2.4 1.9 4.3 4.3 4.3 2.4 0 4.3-1.8 4.3-4.3 0-2.5-1.9-4.3-4.3-4.3zm0 6.9c-1.3 0-2.4-1.1-2.4-2.6 0-1.5 1.1-2.6 2.4-2.6 1.3 0 2.4 1 2.4 2.6 0 1.5-1.1 2.6-2.4 2.6z" fill="#5F6368"/>
    <path d="M56.5 12.8v1.1h2.6c-.1.6-.3 1.1-.6 1.4-.4.4-.9.8-1.9.8-1.5 0-2.7-1.2-2.7-2.8s1.2-2.8 2.7-2.8c.8 0 1.4.3 1.8.7l.8-.8c-.6-.6-1.4-.9-2.6-.9-2.1 0-3.8 1.7-3.8 3.8s1.7 3.8 3.8 3.8c1.1 0 1.9-.4 2.6-1.1.7-.7.9-1.6.9-2.3 0-.2 0-.4-.1-.6h-3.5v-.3z" fill="#5F6368"/>
    <path d="M62.9 19.4h1.9V8.3h-1.9z" fill="#5F6368"/>
  </g>
</svg>