<svg xmlns="http://www.w3.org/2000/svg" width="80" height="50" viewBox="0 0 80 50">
  <rect width="80" height="50" rx="4" fill="#ffffff"/>
  <path d="M30.598 18.201l-6.036 14.356h-3.753l-2.963-11.46c-0.18-0.703-0.336-0.96-0.883-1.257-0.892-0.48-2.367-0.93-3.666-1.208l0.088-0.431h6.32c0.805 0 1.529 0.536 1.713 1.464l1.564 8.301 3.858-9.765h3.758zm15.01 9.688c0.01-3.772-5.22-3.98-5.184-5.665 0.012-0.512 0.5-1.056 1.57-1.195 0.53-0.069 1.992-0.124 3.649 0.64l0.649-3.028c-0.89-0.323-2.037-0.632-3.465-0.632-3.66 0-6.235 1.944-6.255 4.726-0.022 2.058 1.84 3.207 3.243 3.892 1.444 0.7 1.928 1.15 1.922 1.776-0.01 0.96-1.152 1.384-2.218 1.4-1.862 0.03-2.944-0.503-3.803-0.905l-0.67 3.133c0.865 0.397 2.466 0.742 4.124 0.76 3.9 0 6.447-1.922 6.458-4.902zm9.682 4.668h3.302l-2.883-14.356h-3.05c-0.686 0-1.264 0.398-1.52 1.01l-5.353 13.346h3.75l0.744-2.06h4.58l0.43 2.06zm-3.986-4.956l1.88-5.18 1.082 5.18h-2.962zm-15.006-9.4l-2.955 14.356h-3.574l2.955-14.356h3.574z" fill="#172B85"/>
</svg>