<svg xmlns="http://www.w3.org/2000/svg" viewBox="0 0 48 32" width="48" height="32">
  <rect width="48" height="32" rx="4" fill="#F9F9F9"/>
  <path d="M34.5 13.2C34.5 15.3 33 16.8 30.9 16.8H29.2C29 16.8 28.9 16.9 28.8 17.1L28.2 20.8C28.2 21 28.1 21.1 27.9 21.1H25.8C25.6 21.1 25.5 21 25.5 20.8L27.2 10.2C27.2 10 27.3 9.9 27.5 9.9H32.2C33.6 9.9 34.5 11 34.5 13.2Z" fill="#253B80"/>
  <path d="M22.5 13.2C22.5 15.3 21 16.8 18.9 16.8H17.2C17 16.8 16.9 16.9 16.8 17.1L16.2 20.8C16.2 21 16.1 21.1 15.9 21.1H13.8C13.6 21.1 13.5 21 13.5 20.8L15.2 10.2C15.2 10 15.3 9.9 15.5 9.9H20.2C21.6 9.9 22.5 11 22.5 13.2Z" fill="#179BD7"/>
  <path d="M30.9 14.8C30.9 14.8 30.9 14.8 30.9 14.8L30.8 14.9C30.3 17.3 28.7 18.2 26.5 18.2H25.2C25 18.2 24.9 18.3 24.8 18.5L24.2 22.2C24.2 22.4 24.1 22.5 23.9 22.5H21.8C21.6 22.5 21.5 22.4 21.6 22.2L22.5 16.8C22.5 16.6 22.6 16.5 22.8 16.5H23.2C25.9 16.5 27.9 15.3 28.5 12.2C28.7 11.3 28.6 10.6 28.2 10.1C28.9 10.6 29.2 11.4 29.2 12.5C29.2 13.3 29.1 14.1 30.9 14.8Z" fill="#222D65"/>
  <path d="M18.9 14.8C18.9 14.8 18.9 14.8 18.9 14.8L18.8 14.9C18.3 17.3 16.7 18.2 14.5 18.2H13.2C13 18.2 12.9 18.3 12.8 18.5L12.2 22.2C12.2 22.4 12.1 22.5 11.9 22.5H9.8C9.6 22.5 9.5 22.4 9.6 22.2L10.5 16.8C10.5 16.6 10.6 16.5 10.8 16.5H11.2C13.9 16.5 15.9 15.3 16.5 12.2C16.7 11.3 16.6 10.6 16.2 10.1C16.9 10.6 17.2 11.4 17.2 12.5C17.2 13.3 17.1 14.1 18.9 14.8Z" fill="#253B80"/>
</svg>