<svg width="100" height="100" xmlns="http://www.w3.org/2000/svg">
  <defs>
    <pattern id="water" patternUnits="userSpaceOnUse" width="100" height="100">
      <path d="M0 25C20 25 20 75 40 75C60 75 60 25 80 25C100 25 100 75 120 75" stroke="#0ea5e9" stroke-width="2" fill="none" stroke-opacity="0.3" />
      <path d="M-20 45C0 45 0 95 20 95C40 95 40 45 60 45C80 45 80 95 100 95" stroke="#0ea5e9" stroke-width="2" fill="none" stroke-opacity="0.3" />
      <path d="M-20 15C0 15 0 65 20 65C40 65 40 15 60 15C80 15 80 65 100 65" stroke="#0ea5e9" stroke-width="2" fill="none" stroke-opacity="0.3" />
    </pattern>
  </defs>
  <rect width="100%" height="100%" fill="url(#water)" />
</svg>