<svg xmlns="http://www.w3.org/2000/svg" width="80" height="50" viewBox="0 0 80 50">
  <rect width="80" height="50" rx="4" fill="#ffffff"/>
  <g transform="translate(10, 15)">
    <path d="M12.6 7.5c-.7 0-1.8-.8-3-0.8-1.5 0-3 .9-3.7 2.3-1.6 2.8-.4 6.8 1.1 9.1.8 1.1 1.7 2.4 2.9 2.3 1.1-.1 1.6-.7 3-.7s1.8.7 3 .7c1.3 0 2.1-1.1 2.8-2.2 .9-1.3 1.3-2.6 1.3-2.7 0 0-2.5-1-2.5-3.8 0-2.4 2-3.5 2-3.5 -1.1-1.7-2.9-1.8-3.5-1.9 -1.6-.1-2.9 .9-3.4 .9z" fill="#000000"/>
    <path d="M16.4 3.5c.6-.8 1.1-1.9 .9-3 -.9 0-2 .6-2.6 1.4 -.6 .7-1.1 1.8-.9 2.9 1 .1 2-.5 2.6-1.3z" fill="#000000"/>
    <path d="M33.9 17.8c-1.3 0-2.2-1-2.2-2.5v-8h5.1v-3.1h-5.1v-4.2h-3.4v4.2h-2.9v3.1h2.9v8.4c0 3.2 1.7 5.1 4.9 5.1 1.3 0 2.4-.3 3.2-.7l-.8-2.7c-.5 .2-1 .4-1.7 .4z" fill="#000000"/>
    <path d="M45.9 4.2c-5.1 0-8.6 3.8-8.6 9.3s3.4 9.3 8.6 9.3c5.1 0 8.6-3.8 8.6-9.3s-3.5-9.3-8.6-9.3zm0 15.5c-3.2 0-5.1-2.7-5.1-6.2s1.9-6.2 5.1-6.2c3.2 0 5.1 2.7 5.1 6.2s-1.9 6.2-5.1 6.2z" fill="#000000"/>
  </g>
</svg>