<svg xmlns="http://www.w3.org/2000/svg" width="80" height="50" viewBox="0 0 80 50">
  <rect width="80" height="50" rx="4" fill="#ffffff"/>
  <g transform="translate(15, 15)">
    <path d="M29.5 2.4C29.5 1.1 28.4 0 27.1 0H12.6C11.8 0 11.1 0.6 11 1.4L7.1 25.1C7 25.6 7.4 26 7.9 26H13.1C13.9 26 14.6 25.4 14.7 24.6L15.7 18.5C15.8 17.7 16.5 17.1 17.3 17.1H21.2C27.1 17.1 30.9 13.8 31.8 8.1C32.2 6.1 31.9 4.4 30.9 3.2C30.6 2.7 30.1 2.5 29.5 2.4Z" fill="#003087"/>
    <path d="M13.9 18.5L14.9 12.4C15 11.6 15.7 11 16.5 11H20.4C26.3 11 30.1 7.7 31 2C31.4 0 31.1 -1.7 30.1 -2.9C29.1 -4.1 27.4 -4.8 25.3 -4.8H14.8C14 -4.8 13.3 -4.2 13.2 -3.4L7.9 25.1C7.8 25.6 8.2 26 8.7 26H13.9C14.7 26 15.4 25.4 15.5 24.6L13.9 18.5Z" transform="translate(3.5, 4.8)" fill="#0070E0"/>
    <path d="M12.8 0.1C13 0 13.3 0 13.5 0H21.7C22.7 0 23.6 0.1 24.4 0.2C24.7 0.3 25 0.3 25.3 0.4C25.6 0.5 25.9 0.6 26.1 0.7C26.2 0.7 26.3 0.8 26.4 0.8C27.1 1.1 27.7 1.5 28.1 2C29.1 0.8 29.4 -0.9 29 -2.9C28.1 -8.6 24.3 -11.9 18.4 -11.9H14.5C13.7 -11.9 13 -11.3 12.9 -10.5L9 13.2C8.9 13.7 9.3 14.1 9.8 14.1H13.8L12.8 0.1Z" transform="translate(3.5, 14.8)" fill="#003087"/>
  </g>
</svg>